HIERARCHY
ROOT joint_Root
{
	OFFSET 0.0 0.0 0.0
	CHANNELS 6 Xposition Yposition Zposition Zrotation Xrotation Yrotation 
	JOINT Hips
	{
		OFFSET -0.726466 93.3139 -2.00062
		CHANNELS 6 Xposition Yposition Zposition Zrotation Xrotation Yrotation 
		JOINT Spine
		{
			OFFSET 15.7357 0.0 0.0
			CHANNELS 6 Xposition Yposition Zposition Zrotation Xrotation Yrotation 
			JOINT Chest
			{
				OFFSET 8.98455 -0.406207 0.0
				CHANNELS 6 Xposition Yposition Zposition Zrotation Xrotation Yrotation 
				JOINT Neck
				{
					OFFSET 16.3773 0.0 0.0
					CHANNELS 6 Xposition Yposition Zposition Zrotation Xrotation Yrotation 
					JOINT Head
					{
						OFFSET 6.45672 0.0 0.0
						CHANNELS 6 Xposition Yposition Zposition Zrotation Xrotation Yrotation 
						End Site
						{
							OFFSET 0.0 0.0 0.0
						}
					}
				}
				JOINT Shoulder_L
				{
					OFFSET 12.9942 -0.242716 4.98039
					CHANNELS 6 Xposition Yposition Zposition Zrotation Xrotation Yrotation 
					JOINT UpperArm_L
					{
						OFFSET 5.34809 0.0 0.0
						CHANNELS 6 Xposition Yposition Zposition Zrotation Xrotation Yrotation 
						JOINT LowerArm_L
						{
							OFFSET 24.3286 1.87007e-05 0.0
							CHANNELS 6 Xposition Yposition Zposition Zrotation Xrotation Yrotation 
							JOINT Hand_L
							{
								OFFSET 22.2916 0.0 0.0
								CHANNELS 6 Xposition Yposition Zposition Zrotation Xrotation Yrotation 
								End Site
								{
									OFFSET 0.0 0.0 0.0
								}
							}
						}
					}
				}
				JOINT Shoulder_R
				{
					OFFSET 12.9945 -0.242716 -4.98039
					CHANNELS 6 Xposition Yposition Zposition Zrotation Xrotation Yrotation 
					JOINT UpperArm_R
					{
						OFFSET -5.34813 0.0 0.0
						CHANNELS 6 Xposition Yposition Zposition Zrotation Xrotation Yrotation 
						JOINT LowerArm_R
						{
							OFFSET -24.3289 0.000322201 0.0
							CHANNELS 6 Xposition Yposition Zposition Zrotation Xrotation Yrotation 
							JOINT Hand_R
							{
								OFFSET -22.2915 -0.000108084 0.0
								CHANNELS 6 Xposition Yposition Zposition Zrotation Xrotation Yrotation 
								End Site
								{
									OFFSET 0.0 0.0 0.0
								}
							}
						}
					}
				}
			}
		}
		JOINT UpperLeg_L
		{
			OFFSET -2.19248 -6.46944 0.0
			CHANNELS 6 Xposition Yposition Zposition Zrotation Xrotation Yrotation 
			JOINT LowerLeg_L
			{
				OFFSET 39.0811 0.0 -1.23785e-05
				CHANNELS 6 Xposition Yposition Zposition Zrotation Xrotation Yrotation 
				JOINT Foot_L
				{
					OFFSET 40.9854 0.0 -1.26872e-05
					CHANNELS 6 Xposition Yposition Zposition Zrotation Xrotation Yrotation 
					JOINT Toes_L
					{
						OFFSET 11.7543 0.0 0.0
						CHANNELS 6 Xposition Yposition Zposition Zrotation Xrotation Yrotation 
						End Site
						{
							OFFSET 0.0 0.0 0.0
						}
					}
				}
			}
		}
		JOINT UpperLeg_R
		{
			OFFSET -2.19251 6.46944 0.0
			CHANNELS 6 Xposition Yposition Zposition Zrotation Xrotation Yrotation 
			JOINT LowerLeg_R
			{
				OFFSET -39.0811 -0.00228153 -0.0401928
				CHANNELS 6 Xposition Yposition Zposition Zrotation Xrotation Yrotation 
				JOINT Foot_R
				{
					OFFSET -40.9854 0.0 0.0
					CHANNELS 6 Xposition Yposition Zposition Zrotation Xrotation Yrotation 
					JOINT Toes_R
					{
						OFFSET -11.7543 0.0 0.0
						CHANNELS 6 Xposition Yposition Zposition Zrotation Xrotation Yrotation 
						End Site
						{
							OFFSET 0.0 0.0 0.0
						}
					}
				}
			}
		}
	}
}
MOTION
Frames:	4
Frame Time:	0.0333333
0.000000 0.000000 0.000000 0.000000 0.000000 -0.000000 -0.364858 92.307800 -0.585034 88.035200 -1.157890 4.411180 15.735700 0.000005 -0.000001 82.025000 85.099500 -80.950800 8.984550 -0.406207 -0.000000 1.954900 -1.413390 2.170440 16.377300 -0.000001 -0.000001 2.744120 -2.285960 -0.231931 6.456720 -0.000001 -0.000000 6.433500 -2.617230 -2.130910 12.994200 -0.242716 4.980390 -89.897300 -0.340838 -73.235100 5.348090 -0.000007 -0.000001 -64.652300 43.858900 -19.809000 24.328600 0.000019 0.000005 4.484830 11.280200 -21.847800 22.291600 -0.000001 0.000005 -1.013340 5.493210 -6.282430 12.994500 -0.242716 -4.980390 88.231000 5.712640 -72.761800 -5.348130 -0.000001 -0.000004 -65.228200 40.815900 -16.136100 -24.328900 0.000322 -0.000009 2.182200 7.769230 -15.749000 -22.291500 -0.000108 -0.000004 9.452800 5.399750 -2.929200 -2.192480 -6.469440 -0.000000 -175.422000 -8.390250 -2.232920 39.081100 -0.000007 -0.000012 -0.104465 0.247129 22.914500 40.985400 -0.000006 -0.000013 0.069819 3.935800 -66.402900 11.754300 -0.000000 0.000003 -0.000042 -0.000485 -16.596400 -2.192510 6.469440 -0.000001 179.528000 14.375300 -179.542000 -39.081100 -0.002282 -0.040193 -0.051643 0.157277 19.263800 -40.985400 0.000008 0.000006 3.211730 8.975480 -65.753900 -11.754300 -0.000006 -0.000006 -0.008642 -0.093195 -20.368700
0.000000 0.000000 0.000000 0.000000 0.000000 -0.000000 -0.419724 92.298000 -0.643773 88.076100 -0.926487 4.458070 15.735700 0.000005 -0.000001 81.749500 85.142900 -80.581300 8.984550 -0.406207 -0.000000 1.864140 -1.453300 2.357950 16.377300 -0.000001 -0.000001 2.927610 -2.150670 -0.453297 6.456720 -0.000001 -0.000000 6.746420 -2.374490 -2.466960 12.994200 -0.242716 4.980390 -89.974200 -0.085175 -73.145000 5.348090 -0.000007 -0.000001 -60.779500 43.100700 -23.202300 24.328600 0.000019 0.000005 6.177230 14.244300 -23.741600 22.291600 -0.000001 0.000005 -2.680450 5.505360 -6.750900 12.994500 -0.242716 -4.980390 88.240400 5.650490 -72.671800 -5.348130 -0.000001 -0.000004 -65.463700 40.349400 -15.915300 -24.328900 0.000322 -0.000009 2.170280 7.847300 -15.519800 -22.291500 -0.000108 -0.000004 9.408810 5.397710 -2.863080 -2.192480 -6.469440 -0.000000 -175.428000 -8.271800 -2.309900 39.081100 -0.000007 -0.000012 -0.106225 0.250277 22.997900 40.985400 -0.000006 -0.000013 0.057522 4.038850 -66.373600 11.754300 -0.000000 0.000003 -0.000043 -0.000499 -16.597000 -2.192510 6.469440 -0.000001 179.466000 14.634300 -179.564000 -39.081100 -0.002282 -0.040193 -0.058139 0.174930 19.359100 -40.985400 0.000008 0.000006 3.046800 9.019630 -65.746500 -11.754300 -0.000006 -0.000006 -0.008659 -0.093331 -20.374300
0.000000 0.000000 0.000000 0.000000 0.000000 -0.000000 -0.511892 92.293200 -0.714544 88.118900 -0.478474 4.708030 15.735700 0.000005 -0.000001 81.824200 85.114100 -80.582800 8.984550 -0.406207 -0.000000 1.923960 -1.452040 2.504980 16.377300 -0.000001 -0.000001 3.208400 -2.205950 -0.721917 6.456720 -0.000001 -0.000000 6.999590 -2.499500 -2.691940 12.994200 -0.242716 4.980390 -90.037200 0.122123 -73.045000 5.348090 -0.000007 -0.000001 -57.326200 38.535200 -26.386500 24.328600 0.000019 0.000005 6.897990 13.519600 -27.364200 22.291600 -0.000001 0.000005 -1.791540 5.495140 -6.336970 12.994500 -0.242716 -4.980390 88.229300 5.649770 -72.566700 -5.348130 -0.000001 -0.000004 -65.740700 39.897700 -15.566800 -24.328900 0.000322 -0.000009 2.183320 7.956010 -15.406800 -22.291500 -0.000108 -0.000004 9.417820 5.397330 -2.850930 -2.192480 -6.469440 -0.000000 -175.368000 -8.074160 -2.188850 39.081100 -0.000007 -0.000012 -0.106663 0.250782 23.041100 40.985400 -0.000006 -0.000013 0.055535 4.353080 -66.308600 11.754300 -0.000000 0.000003 -0.000040 -0.000469 -16.595800 -2.192510 6.469440 -0.000001 179.399000 14.976500 -179.339000 -39.081100 -0.002282 -0.040193 -0.059588 0.178484 19.416000 -40.985400 0.000008 0.000006 3.020650 8.919500 -65.767600 -11.754300 -0.000006 -0.000006 -0.008550 -0.092464 -20.338900
0.000000 0.000000 0.000000 0.000000 0.000000 -0.000000 -0.605716 92.279200 -0.805136 88.237600 0.056173 4.977440 15.735700 0.000005 -0.000001 82.112700 85.071800 -80.815100 8.984550 -0.406207 -0.000000 2.015090 -1.416750 2.617830 16.377300 -0.000001 -0.000001 3.498410 -2.369720 -0.995297 6.456720 -0.000001 -0.000000 7.265240 -2.861690 -2.982140 12.994200 -0.242716 4.980390 -90.088800 0.292383 -73.103500 5.348090 -0.000007 -0.000001 -55.029700 31.043700 -28.958600 24.328600 0.000019 0.000005 6.688290 10.313300 -33.235900 22.291600 -0.000001 0.000005 0.477243 5.514080 -7.107590 12.994500 -0.242716 -4.980390 88.243700 5.590190 -72.527100 -5.348130 -0.000001 -0.000004 -65.853900 39.859400 -15.333800 -24.328900 0.000322 -0.000009 2.162230 7.932310 -15.308000 -22.291500 -0.000108 -0.000004 9.393520 5.399370 -2.916810 -2.192480 -6.469440 -0.000000 -175.399000 -7.890030 -2.091050 39.081100 -0.000007 -0.000012 -0.105506 0.247230 23.110500 40.985400 -0.000006 -0.000013 0.077389 4.705140 -66.232700 11.754300 -0.000000 0.000003 -0.000035 -0.000417 -16.593800 -2.192510 6.469440 -0.000001 179.232000 15.303800 -179.168000 -39.081100 -0.002282 -0.040193 -0.067435 0.198728 19.598200 -40.985400 0.000008 0.000006 2.853530 8.745770 -65.813300 -11.754300 -0.000006 -0.000006 -0.008649 -0.093251 -20.371000
